Coordinates
version=1
nRows=16
nColumns=36
inDegrees=yes

Units are S.I. units (second, meters, Newtons, ...)
If the header above contains a line with 'inDegrees', this indicates whether rotational values are in degrees (yes) or radians (no).

endheader
time	pelvis_tilt	pelvis_list	pelvis_rotation	pelvis_tx	pelvis_ty	pelvis_tz	hip_flexion_r	hip_adduction_r	hip_rotation_r	knee_angle_r	knee_angle_r_beta	ankle_angle_r	subtalar_angle_r	mtp_angle_r	hip_flexion_l	hip_adduction_l	hip_rotation_l	knee_angle_l	knee_angle_l_beta	ankle_angle_l	subtalar_angle_l	mtp_angle_l	lumbar_extension	lumbar_bending	lumbar_rotation	arm_flex_r	arm_add_r	arm_rot_r	elbow_flex_r	pro_sup_r	arm_flex_l	arm_add_l	arm_rot_l	elbow_flex_l	pro_sup_l
      1.04000000	    -13.28028127	      0.96019805	      3.91180847	     -0.34655539	      0.70791480	     -0.56877586	     73.44568618	     -8.42465649	      4.60304880	     89.26031120	      1.55788632	     30.68375702	     -6.84396994	     -7.36252979	     70.70916730	     -2.10163377	      4.04570560	     87.65222892	      1.52981999	     28.40637888	    -11.21539331	     -7.36252979	    -31.89437939	     -5.56250674	     -4.32609251	     40.10361181	     -4.43582186	     12.70465987	    101.20370791	    102.06704714	     45.69809810	    -12.26646954	     20.32983582	    106.78168857	    112.89285822
      1.05000000	    -14.05821395	      0.80321560	      3.64415568	     -0.34762628	      0.70424812	     -0.56840044	     74.66397457	     -8.13908268	      4.66103246	     89.60059314	      1.56382536	     30.79013672	     -6.55052962	     -7.36360160	     71.88216997	     -2.38114536	      4.14111284	     88.11284624	      1.53785928	     28.67814387	    -11.24218014	     -7.36360160	    -32.41912681	     -5.38884953	     -4.07639977	     45.13258848	     -3.76875873	     13.01696104	     99.01050046	    102.02386834	     50.35779545	    -11.95691800	     21.91207218	    105.02172797	    112.84901334
      1.06000000	    -14.91696256	      0.62512933	      3.42227907	     -0.34884602	      0.70152855	     -0.56815588	     75.77993621	     -7.89559130	      4.63462630	     89.62381793	      1.56423071	     30.89262195	     -6.26234297	     -7.36495680	     73.08617490	     -2.66552145	      4.21465505	     88.34430843	      1.54189906	     28.76952695	    -11.06633850	     -7.36495680	    -32.80177491	     -5.15650913	     -3.76561000	     49.85841470	     -3.13248628	     13.01937749	     96.78305322	    101.98246653	     54.95822525	    -11.63868154	     23.28459927	    102.73454044	    112.71947125
      1.07000000	    -15.82449641	      0.55370654	      3.29430693	     -0.34999483	      0.69960906	     -0.56840877	     76.87820838	     -7.84344934	      4.63887501	     89.56227929	      1.56315666	     30.89780545	     -6.04703782	     -7.36611534	     74.23279968	     -2.75158143	      4.19267901	     88.44487769	      1.54365432	     28.77078842	    -10.93990566	     -7.36611534	    -33.17834169	     -4.98658732	     -3.62757948	     54.27060296	     -2.52468498	     12.72583037	     94.78476259	    101.90835153	     59.28020475	    -11.10184671	     24.05522804	    100.36188703	    112.52908530
      1.08000000	    -16.81224395	      0.52652912	      3.24737972	     -0.35124761	      0.69835153	     -0.56873693	     77.98561204	     -7.88331861	      4.63100790	     89.34603917	      1.55938256	     30.81274464	     -5.87229997	     -7.36726738	     75.33981684	     -2.69543180	      4.17759676	     88.31547703	      1.54139585	     28.71393983	    -10.87378742	     -7.36726738	    -33.49479130	     -4.79741822	     -3.55330580	     58.38582336	     -1.93569163	     12.30575927	     93.14230198	    101.82374226	     63.41604529	    -10.52740108	     24.55869905	     97.97507339	    112.31259101
      1.09000000	    -17.91607736	      0.39160178	      3.12362555	     -0.35248195	      0.69749644	     -0.56838916	     79.13647442	     -7.74588585	      4.51546420	     89.01201894	      1.55355280	     30.60868309	     -5.71923542	     -7.36842049	     76.51054664	     -2.84586960	      4.22962845	     88.07197819	      1.53714600	     28.60232390	    -10.83122445	     -7.36842049	    -33.68689399	     -4.63886403	     -3.37924545	     62.21905785	     -1.41234141	     11.85297575	     91.90952592	    101.73064965	     67.39274083	     -9.99189780	     24.98994159	     95.75058449	    112.10417976
      1.10000000	    -19.06985639	      0.21404588	      2.85406776	     -0.35362937	      0.69709673	     -0.56731733	     80.27640034	     -7.39608157	      4.34637920	     88.56400753	      1.54573353	     30.31572291	     -5.63736445	     -7.36973401	     77.64241037	     -3.22581237	      4.28929205	     87.72189661	      1.53103592	     28.47943772	    -10.77490649	     -7.36973401	    -33.82182341	     -4.57369473	     -3.01173232	     65.80860775	     -1.04276197	     11.46449447	     91.14505825	    101.64527545	     71.23513278	     -9.43895059	     25.35713985	     93.74638217	    111.92024794
      1.11000000	    -20.17635815	      0.17473013	      2.65411483	     -0.35467737	      0.69744284	     -0.56640768	     81.29072255	     -7.14085724	      4.31603072	     88.03515836	      1.53650337	     29.88145786	     -5.86017123	     -7.37389108	     78.55803615	     -3.45531654	      4.24241609	     87.15874296	      1.52120704	     28.34399629	    -10.84393385	     -7.37389108	    -34.04835793	     -4.60231505	     -2.58513486	     69.11772393	     -1.01588792	     11.08873902	     91.11396951	    101.53694657	     74.99595682	     -8.63136874	     25.68076083	     91.79077435	    111.77034905
      1.12000000	    -21.25573523	      0.19987562	      2.61835182	     -0.35576956	      0.69849700	     -0.56614862	     82.16525038	     -7.12895239	      4.30906580	     87.34985280	      1.52454253	     29.62291910	     -5.67591469	     -7.37486787	     79.34268200	     -3.43138258	      4.16767734	     86.44043629	      1.50867022	     28.24738681	    -10.82987195	     -7.37486787	    -34.29758397	     -4.42571358	     -2.66269316	     72.50778227	     -0.69434075	     11.18818640	     90.70642994	    101.46450195	     78.24447877	     -8.18612987	     25.39131859	     90.60578317	    111.64945993
      1.13000000	    -22.19383266	      0.31708421	      2.59115295	     -0.35682812	      0.70005750	     -0.56582142	     82.88348854	     -7.19778066	      4.29852183	     86.68946536	      1.51301660	     29.28409917	     -5.52595876	     -7.37630137	     79.93416671	     -3.43721325	      3.94547654	     85.66598097	      1.49515342	     27.96653688	    -10.89754544	     -7.37630137	    -34.65069588	     -4.33973803	     -2.66594057	     75.85325330	     -0.54546348	     11.46830578	     90.39329970	    101.34052094	     81.47137975	     -7.77246325	     25.47320274	     89.42410783	    111.56997642
      1.14000000	    -23.16807721	      0.44281890	      2.53661649	     -0.35771063	      0.70170690	     -0.56530110	     83.59657673	     -7.20088923	      4.33380236	     85.97322987	      1.50051593	     29.02570802	     -5.48588726	     -7.37850953	     80.54351242	     -3.51315279	      3.69128804	     84.86991448	      1.48125944	     27.57839097	    -11.01506954	     -7.37850953	    -34.89081663	     -4.32678717	     -2.68473422	     78.87812190	     -0.36274184	     11.72590687	     90.30836982	    101.11507432	     84.45910593	     -7.33735324	     25.54644031	     88.50324486	    111.51625911
      1.15000000	    -24.15307577	      0.63723797	      2.57545911	     -0.35833204	      0.70359179	     -0.56501242	     84.25439874	     -7.33849623	      4.40848230	     85.21151779	      1.48722155	     28.88933037	     -5.40290817	     -7.37974030	     81.07293688	     -3.46055184	      3.38979739	     83.98001824	      1.46572782	     27.25239033	    -10.91331743	     -7.37974030	    -35.02337161	     -4.28396365	     -2.87049024	     81.66879366	     -0.08735917	     12.00333763	     90.20628872	    100.97259829	     87.03340900	     -6.88669761	     25.31750400	     87.81715689	    111.43656842
      1.16000000	    -25.09257424	      0.91348078	      2.63481798	     -0.35871011	      0.70561836	     -0.56483899	     84.85887422	     -7.52603804	      4.54985472	     84.47032505	      1.47428529	     28.77840509	     -5.35086951	     -7.38112594	     81.49201919	     -3.31653813	      3.03039797	     83.06950637	      1.44983639	     26.94982940	    -10.96864986	     -7.38112594	    -35.11811389	     -4.31350739	     -3.10182466	     84.21028335	      0.18042138	     12.24955528	     90.17545342	    100.80378442	     89.39512209	     -6.42885952	     25.20391197	     87.25852008	    111.37606240
      1.17000000	    -26.15966042	      1.06245275	      2.60567247	     -0.35882746	      0.70746481	     -0.56440506	     85.53873887	     -7.53886847	      4.58808339	     83.68300203	      1.46054391	     28.75578601	     -5.27516018	     -7.38157551	     82.05661352	     -3.31280646	      2.80766841	     82.21089510	      1.43485080	     26.88991980	    -10.96107440	     -7.38157551	    -34.94835312	     -4.26163952	     -3.20854601	     86.39080940	      0.62489887	     12.29647046	     90.29736744	    100.75552948	     91.34050888	     -5.97895068	     24.91530254	     87.05966472	    111.33550103
      1.18000000	    -26.93480248	      1.40765538	      2.56361654	     -0.35864621	      0.70978244	     -0.56394833	     86.00048281	     -7.60933827	      4.77681020	     83.01350989	      1.44885907	     28.36698338	     -5.23794678	     -7.38362932	     82.23392391	     -3.26737986	      2.36948465	     81.31616754	      1.41923486	     26.37986922	    -11.33292871	     -7.38362932	    -35.04756935	     -4.39820517	     -3.40311424	     88.61670179	      0.93205834	     12.69992784	     90.15917891	    100.55494735	     93.40869578	     -5.51003468	     24.95280906	     86.42887007	    111.30708716
      1.19000000	    -27.83124291	      1.59268480	      2.52632643	     -0.35803885	      0.71201772	     -0.56358627	     86.46795100	     -7.64124302	      4.82745863	     82.25043967	      1.43554098	     28.29321627	     -5.15765233	     -7.38430603	     82.53536760	     -3.23372115	      2.16642367	     80.45397703	      1.40418680	     26.24478568	    -11.35446800	     -7.38430603	    -34.87789605	     -4.34109867	     -3.49053251	     90.39625926	      1.42555777	     12.85213383	     90.22728815	    100.50679801	     94.94813441	     -5.01792116	     24.61013886	     86.17211786	    111.26065003
